# xmcd CD database file
#
# Track frame offsets:
#	150
#	13351
#	27170
#	42414
#	63386
#	82442
#	101204
#	118047
#	138792
#	154991
#	169725
#	190409
#
# Disc length: 2781 seconds
#
# Revision: 1
# Processed by: cddbd v1.5.2PL0 Copyright (c) Steve Scherf et al.
# Submitted via: CDex 1.70beta3
#
DISCID=ad0adb0c
DTITLE=ARTIST TRIBUTE - PAUSE～STRAIGHTENER Tribute Album～
DYEAR=2017
DGENRE=J-Rock
TTITLE0=MONOEYES - ROCKSTEADY
TTITLE1=go!go!vanillas - KILLER TUNE
TTITLE2=back number - シーグラス
TTITLE3=ACIDMAN - SIX DAY WONDER
TTITLE4=majiko - 冬の太陽
TTITLE5=9mm Parabellum Bullet - Melodic Storm
TTITLE6=SPECIAL OTHERS - TRAVELING GARGOYLE
TTITLE7=THE BACK HORN - シンクロ
TTITLE8=ASIAN KUNG-FU GENERATION - SENSELESS STORY TELLER SONY
TTITLE9=My Hair is Bad - REMINDER
TTITLE10=the pillows - Farewell Dear Deadman
TTITLE11=STRAIGHTENER - SAD AND BEAUTIFUL WORLD
EXTD=YEAR: 2017
EXTT0=
EXTT1=
EXTT2=
EXTT3=
EXTT4=
EXTT5=
EXTT6=
EXTT7=
EXTT8=
EXTT9=
EXTT10=
EXTT11=
PLAYORDER=
